<?xml version="1.0" encoding="UTF-8" standalone="no"?>
<!-- Created with Inkscape (http://www.inkscape.org/) -->

<svg
   width="212.76395mm"
   height="36.011021mm"
   viewBox="0 0 212.76394 36.011021"
   version="1.1"
   id="svg1"
   xml:space="preserve"
   inkscape:version="1.3.2 (091e20e, 2023-11-25, custom)"
   sodipodi:docname="Signature.svg"
   xmlns:inkscape="http://www.inkscape.org/namespaces/inkscape"
   xmlns:sodipodi="http://sodipodi.sourceforge.net/DTD/sodipodi-0.dtd"
   xmlns="http://www.w3.org/2000/svg"
   xmlns:svg="http://www.w3.org/2000/svg"><sodipodi:namedview
     id="namedview1"
     pagecolor="#ffffff"
     bordercolor="#000000"
     borderopacity="0.25"
     inkscape:showpageshadow="2"
     inkscape:pageopacity="0.0"
     inkscape:pagecheckerboard="0"
     inkscape:deskcolor="#d1d1d1"
     inkscape:document-units="mm"
     inkscape:zoom="2.0899411"
     inkscape:cx="440.92152"
     inkscape:cy="18.421572"
     inkscape:window-width="2560"
     inkscape:window-height="1369"
     inkscape:window-x="2552"
     inkscape:window-y="-8"
     inkscape:window-maximized="1"
     inkscape:current-layer="layer1" /><defs
     id="defs1" /><g
     inkscape:label="Lag 1"
     inkscape:groupmode="layer"
     id="layer1"
     transform="translate(1.6755258,-92.121267)"><path
       style="fill:#000000"
       d="m 18.014239,123.09925 c -2.092242,-0.80252 -5.640698,-3.9479 -6.645166,-5.89033 -0.832521,-1.60992 0.155771,-2.27685 1.189672,-0.80283 2.286837,3.26032 5.475769,5.4951 7.825865,5.4843 4.631844,-0.0213 5.516958,-4.22112 5.572632,-7.13794 0.06249,-3.27422 0.228026,-6.16862 0.367847,-6.432 0.314431,-0.5923 1.498537,-0.50966 1.900611,0.13266 0.211962,0.3386 0.17016,0.56906 -0.171751,0.94687 -0.381085,0.4211 -0.451898,1.08289 -0.451898,4.22324 0,7.56407 -1.443161,8.65481 -4.648854,9.93748 -1.544899,0.61814 -3.747315,-0.004 -4.938958,-0.46145 z m 125.006681,0.38906 c -2.41836,-1.09766 -7.04163,-6.6231 -6.225,-7.43973 0.48902,-0.48902 1.01335,-0.11746 2.06049,1.46013 1.80681,2.72206 4.74365,4.91665 6.57957,4.91665 1.2051,0 2.38463,-1.32895 2.9716,-3.34806 0.45812,-1.57587 0.40538,-3.43147 -0.19936,-7.01504 -0.26498,-1.57019 -0.34781,-1.73287 -0.75335,-1.4796 -0.56565,0.35326 -1.31949,0.092 -1.31949,-0.45737 0,-0.22574 0.28871,-1.12095 0.64158,-1.98936 0.35286,-0.8684 0.54887,-1.63621 0.43556,-1.70624 -0.22726,-0.14045 -0.41172,0.21494 -1.91077,3.68146 -1.51947,3.51374 -3.01945,4.85435 -5.0654,4.52719 -2.25784,-0.36104 -3.08681,-1.69504 -3.48057,-5.601 -0.13006,-1.29016 -0.0787,-1.68381 0.2561,-1.96164 0.67369,-0.55912 1.19532,0.21721 1.35219,2.01245 0.20871,2.38844 0.77276,3.50126 1.87996,3.70897 1.45365,0.2727 2.10779,-0.43229 4.09335,-4.41154 0.97563,-1.95525 1.94061,-4.09079 2.14439,-4.74563 0.30129,-0.96817 0.48667,-1.19063 0.99219,-1.19063 0.53777,0 0.67206,0.20644 0.99497,1.52949 l 0.3733,1.52949 0.93281,-0.55037 c 1.31525,-0.77601 3.59471,-1.31798 5.5433,-1.31798 1.53361,0 1.7445,0.0732 2.70213,0.93839 1.28606,1.16188 3.29094,4.98359 3.72302,7.09681 0.17463,0.8541 0.24077,2.06466 0.14698,2.69014 -0.31069,2.07178 -2.50565,4.34752 -3.44294,3.56964 -0.6303,-0.5231 -0.48153,-1.11914 0.52296,-2.09516 0.87244,-0.84771 0.92323,-0.99404 0.92323,-2.65983 0,-1.50492 -0.14907,-2.07036 -1.01907,-3.86545 -0.56049,-1.15647 -1.42369,-2.50106 -1.91823,-2.98798 l -0.89916,-0.88532 -1.98437,0.17087 c -2.00925,0.17301 -3.82488,0.83735 -4.57114,1.67258 -0.35402,0.39624 -0.36734,0.78745 -0.10111,2.96989 0.16864,1.38245 0.30662,4.07019 0.30662,5.97275 0,3.32714 -0.0305,3.5188 -0.79859,5.01981 -1.3577,2.6532 -3.32781,3.40314 -5.88775,2.24122 z m -22.02765,-2.96177 c -0.004,-0.047 -0.0499,-1.39524 -0.10266,-2.99597 -0.10146,-3.077 -1.03258,-9.35046 -2.14022,-14.41979 -0.36565,-1.67349 -0.84621,-3.995207 -1.0679,-5.159374 -0.35338,-1.855675 -0.52023,-2.221432 -1.35316,-2.966323 -1.02008,-0.912251 -1.05747,-1.663885 -0.0828,-1.663885 1.99291,0 2.67331,1.84833 3.82284,10.384892 l 0.16924,1.25677 h 2.2356 c 2.03253,0 6.51974,-0.63392 7.04216,-0.9568 0.41388,-0.25579 0.20616,-1.59742 -1.01325,-6.544641 -0.99516,-4.037396 -0.63239,-5.029858 -0.34405,-5.208063 0.19593,-0.121087 0.4415,-0.167457 0.54572,-0.103044 0.23742,0.146731 1.99409,7.444613 2.23209,9.272948 0.23909,1.83672 0.42102,2.0944 1.16198,1.64576 0.65325,-0.39553 0.65523,-0.30285 -0.10882,-5.085455 -0.22965,-1.437521 -0.47504,-2.706699 -0.54531,-2.820394 -0.0703,-0.113696 -0.0551,-0.396058 0.0337,-0.627472 0.17133,-0.446484 1.03558,-0.576672 1.27343,-0.191825 0.24789,0.401091 1.16829,6.667486 1.46255,9.957536 0.26933,3.01134 0.65208,5.53294 1.49427,9.84457 0.50796,2.60051 0.48658,2.98772 -0.16496,2.98772 -0.29561,0 -0.59205,-0.14883 -0.65876,-0.33073 -0.26769,-0.72993 -1.69418,-8.91999 -1.86284,-10.69529 l -0.1803,-1.89789 -0.66383,0.30246 c -0.64997,0.29615 -0.66048,0.34683 -0.50292,2.42706 0.0885,1.16853 0.24056,4.09412 0.33791,6.50132 0.17937,4.43518 0.001,5.69452 -0.76447,5.39958 -0.24686,-0.0951 -0.85587,-1.70594 -0.85587,-6.59153 0,-3.96437 -0.10235,-6.56413 -0.26458,-6.72019 -0.16999,-0.16353 -0.63408,0.45047 -2.24896,0.76657 -1.38244,0.27057 -3.61487,0.49823 -4.96093,0.50591 -1.34607,0.008 -2.4474,-0.46717 -2.4474,-0.40853 0,0.0587 0.8877,2.72016 1.3259,5.91445 0.84561,6.16414 0.35373,8.07522 -0.36877,8.21965 -0.23538,0.047 -0.43098,0.047 -0.43466,0 z m -63.232446,-0.81315 c -0.943109,-0.64112 -2.469931,-3.13971 -2.923742,-4.78461 -0.220714,-0.80001 -0.374244,-0.97559 -0.726704,-0.83106 -0.245778,0.10079 -1.697025,0.40465 -3.224994,0.67525 -1.527969,0.27061 -2.787962,0.49575 -2.799985,0.50033 -0.01202,0.005 0.07325,0.69292 0.189489,1.52967 0.176627,1.27141 0.139308,1.57569 -0.227147,1.85208 -0.241173,0.1819 -0.508316,0.33073 -0.593651,0.33073 -0.08534,0 -0.783974,-0.71437 -1.55253,-1.5875 -0.768557,-0.87312 -1.489066,-1.5875 -1.601132,-1.5875 -0.112066,0 -0.489742,0.61059 -0.839281,1.35687 -0.744969,1.59054 -1.47468,2.15119 -2.64829,2.03473 -0.755706,-0.075 -1.00206,-0.33749 -2.229944,-2.37609 l -1.380382,-2.29179 -0.818776,0.81878 c -0.692046,0.69204 -1.064963,0.83658 -2.409347,0.93382 -2.039711,0.14754 -2.71076,-0.033 -3.853963,-1.03672 -0.784497,-0.68879 -0.930662,-0.98986 -0.929419,-1.9144 0.0034,-2.50429 1.005614,-4.17489 3.889191,-6.48273 1.852007,-1.48224 3.085959,-1.90632 3.715388,-1.27689 0.545967,0.54597 0.24994,1.18428 -0.649412,1.40032 -0.922244,0.22153 -3.336651,2.23964 -4.345339,3.63209 -0.851883,1.17599 -1.027261,2.7981 -0.3622,3.35005 0.55469,0.46035 2.590975,0.64774 3.243554,0.2985 0.898678,-0.48096 1.967597,-2.65633 2.14828,-4.37198 0.182735,-1.73515 0.719432,-2.37462 1.553333,-1.85079 0.382661,0.24038 0.485981,0.81415 0.595313,3.30594 0.129398,2.94912 0.154956,3.05148 1.168282,4.67877 l 1.03599,1.66368 0.648029,-1.26681 c 0.622692,-1.21728 0.641202,-1.40197 0.4734,-4.72384 -0.19683,-3.89652 -0.08453,-4.3967 1.297351,-5.77859 1.028784,-1.02878 1.805185,-1.18421 2.71882,-0.54427 0.754637,0.52856 1.085479,1.82306 1.325897,5.18785 l 0.195773,2.73996 1.950423,-0.0946 c 2.785727,-0.13508 4.374202,-0.5713 4.472945,-1.22834 0.301474,-2.006 0.623169,-2.15902 1.972978,-0.93846 0.84759,0.76643 0.855944,0.79589 0.438032,1.54451 -0.393516,0.70491 -0.391192,0.87579 0.03044,2.23852 0.537616,1.73758 1.420824,3.25306 2.032693,3.48785 0.840806,0.32265 1.01209,-0.31447 0.906532,-3.37202 -0.190226,-5.50998 -0.227091,-5.06787 0.430374,-5.16128 0.441968,-0.0628 0.670011,0.10548 0.896463,0.66146 0.77327,1.89854 1.546379,3.18548 3.094686,5.1515 0.920417,1.16874 1.722582,2.07588 1.782588,2.01588 0.06001,-0.06 -0.140331,-0.81507 -0.445194,-1.67791 -0.304863,-0.86284 -0.617292,-2.25059 -0.694288,-3.08389 -0.195263,-2.11326 0.508101,-3.02247 3.008575,-3.88906 3.483788,-1.20738 3.660973,-1.40978 2.876917,-3.28629 -0.926081,-2.21642 -0.121618,-11.288672 1.020291,-11.506235 0.270119,-0.05147 0.591227,0.0069 0.713574,0.129678 0.122347,0.122787 0.241929,3.795125 0.265739,8.160747 0.04524,8.29436 0.142426,9.17511 1.350329,12.23698 l 0.547984,1.38906 1.622916,-0.003 c 1.841179,-0.004 3.776011,-0.45795 5.327083,-1.25105 0.582084,-0.29763 1.175925,-0.52415 1.319648,-0.50338 0.143723,0.0208 0.343907,-0.53961 0.444854,-1.24532 0.22993,-1.60741 1.248118,-3.71574 2.403777,-4.97743 0.696204,-0.76007 1.161695,-1.00867 2.172584,-1.16026 0.832663,-0.12487 1.457916,-0.0859 1.772317,0.11045 0.267179,0.16685 0.485779,0.1918 0.485779,0.0554 0,-0.37146 0.780916,-1.07947 1.190625,-1.07947 1.206434,0 1.562952,2.34239 0.767891,5.0452 -0.562302,1.91155 -2.362338,3.70447 -4.222104,4.20541 -1.776068,0.4784 -1.915981,0.67695 -0.875668,1.24264 0.696406,0.37869 1.476515,0.48443 3.582053,0.48554 2.333983,0.001 2.791153,-0.0733 3.439583,-0.56037 0.595506,-0.44735 0.747828,-0.7707 0.747828,-1.5875 0,-0.92228 0.07337,-1.03416 0.727604,-1.10943 0.400183,-0.046 0.738706,0.0135 0.752274,0.13229 0.301212,2.63744 -0.02922,3.37091 -1.967909,4.36827 -1.359569,0.69942 -4.466077,0.93252 -6.579813,0.49371 -1.604608,-0.33312 -3.751086,-1.73664 -4.037883,-2.64026 -0.155446,-0.48976 -0.233026,-0.47886 -1.804393,0.25369 -3.73925,1.74318 -7.134105,2.01029 -8.314175,0.65419 -0.61891,-0.71124 -1.828903,-4.25452 -2.101779,-6.15474 -0.08881,-0.61846 -0.250181,-1.12448 -0.358596,-1.12448 -0.461199,0 -3.863073,1.38895 -4.194263,1.71247 -0.54825,0.53556 -0.411301,2.21094 0.344965,4.22015 0.741749,1.97065 0.851804,3.04892 0.36126,3.53947 -0.842852,0.84285 -2.645298,-0.17298 -4.726612,-2.66384 l -1.305888,-1.56285 v 2.01954 c 0,1.79142 -0.07336,2.09289 -0.649432,2.66897 -0.818255,0.81825 -1.906069,0.8375 -3.058462,0.0541 z m 30.53761,-6.65181 c 1.330628,-0.7798 2.582806,-2.86911 2.043032,-3.40888 -0.163762,-0.16377 -0.297748,-0.57578 -0.297748,-0.9156 0,-0.52887 -0.07371,-0.57841 -0.511773,-0.34396 -0.281475,0.15064 -0.866203,0.27389 -1.299397,0.27389 -1.257548,0 -2.766014,2.0552 -3.116304,4.2458 l -0.180109,1.12634 1.098504,-0.14734 c 0.604177,-0.081 1.622885,-0.45465 2.263795,-0.83025 z m -42.597663,-1.85162 c -0.120695,-1.18033 -0.223922,-2.65922 -0.229395,-3.28641 l -0.0099,-1.14036 -0.595313,0.69209 c -0.490021,0.56968 -0.594797,1.00536 -0.5924,2.46328 0.0016,0.97415 0.07364,2.19876 0.160094,2.72136 0.139571,0.84373 0.231643,0.93595 0.821795,0.82314 l 0.664614,-0.12705 z m 56.987539,8.54816 c -2.61686,-0.38364 -4.756907,-1.90383 -5.11998,-3.637 -0.08148,-0.38897 -0.191685,-0.92445 -0.244892,-1.18995 -0.132155,-0.65945 0.53729,-3.13862 1.196359,-4.4305 0.916839,-1.79716 1.769453,-2.14147 5.059773,-2.04331 2.34845,0.0701 2.91549,0.17035 3.38972,0.59952 0.35485,0.32114 0.51851,0.71035 0.43422,1.03268 -0.0939,0.35897 0.17197,0.81546 0.8686,1.49152 0.84611,0.82113 1.02856,1.19885 1.16092,2.40353 0.0864,0.78611 0.0672,2.24991 -0.0426,3.25289 -0.26743,2.44259 -0.71497,2.81855 -3.30257,2.77435 -1.0389,-0.0177 -2.56869,-0.13192 -3.39953,-0.25373 z m 4.84952,-2.29369 c 0.26485,-0.6807 0.16517,-3.21815 -0.15936,-4.05678 -0.23159,-0.59844 -1.77121,-1.52894 -2.91833,-1.76375 -0.71462,-0.14628 -1.14032,-0.40886 -1.31955,-0.81393 -0.22642,-0.51174 -0.4346,-0.58681 -1.4435,-0.52056 l -1.17892,0.0774 -0.741706,1.94721 c -0.631999,1.6592 -0.70238,2.09324 -0.475841,2.93455 0.146225,0.54303 0.491269,1.19132 0.766767,1.44064 0.97261,0.88021 2.9869,1.45754 5.13027,1.47044 2.00379,0.0121 2.0644,-0.006 2.34017,-0.71523 z m 72.72932,1.8326 c -0.65455,-0.24395 -1.81541,-1.04559 -2.57968,-1.78143 -1.35881,-1.30826 -1.38958,-1.37144 -1.38958,-2.85277 0,-2.48364 0.73434,-3.66174 3.12587,-5.01478 1.05927,-0.5993 1.09739,-0.65763 0.52916,-0.80981 -1.00151,-0.26821 -3.38192,-0.19346 -4.00316,0.1257 -0.97215,0.49945 -2.03312,1.62619 -2.03312,2.15914 0,0.27774 0.2259,0.82223 0.50201,1.20999 0.59215,0.83159 1.61465,3.82318 1.61465,4.72406 0,1.27758 -2.16715,2.5771 -3.78268,2.26827 -0.37039,-0.0708 -0.93178,-0.40372 -1.24752,-0.73981 -0.53832,-0.57302 -0.62972,-0.58782 -1.4676,-0.23773 -1.50123,0.62725 -3.38034,0.48729 -4.34397,-0.32355 -0.60814,-0.51171 -0.80687,-0.88081 -0.7479,-1.38906 0.10481,-0.90344 1.06295,-1.07855 1.61203,-0.29463 0.32469,0.46355 0.61378,0.54586 1.6792,0.47808 1.19805,-0.0762 1.29299,-0.13441 1.37385,-0.84206 0.0636,-0.55696 -0.23421,-1.22891 -1.11416,-2.51354 -1.38337,-2.01957 -1.86385,-3.7031 -1.46703,-5.14027 0.37578,-1.36095 1.09864,-1.77247 3.11349,-1.77247 1.61171,0 1.74065,0.0486 2.71567,1.02362 0.82087,0.82088 1.0815,0.95387 1.31589,0.67145 0.16075,-0.19369 0.96604,-0.6056 1.78952,-0.91535 1.20139,-0.4519 1.81095,-0.52886 3.08475,-0.38945 1.88896,0.20674 2.88609,0.7558 2.69559,1.48429 -0.11638,0.44502 0.0174,0.50748 1.0995,0.51316 1.08867,0.006 1.85627,0.12679 4.22599,0.66655 1.29827,0.29571 1.7689,3.55595 0.99085,6.86388 -0.28554,1.21398 -0.59254,1.7854 -1.3149,2.44739 -0.8892,0.8149 -1.05085,0.86253 -2.8645,0.84415 -1.10124,-0.0112 -2.43036,-0.20891 -3.11222,-0.46302 z m 4.83477,-1.63463 c 0.52582,-0.41361 0.74064,-0.92879 0.98067,-2.35189 0.43118,-2.55627 0.29978,-3.57772 -0.47432,-3.68744 -0.33632,-0.0477 -0.67648,-0.25603 -0.75591,-0.46302 -0.21653,-0.56427 -3.72764,-0.51756 -4.593,0.0611 -1.69905,1.13615 -2.10939,1.72808 -2.10939,3.04281 0,1.0872 0.12712,1.39172 0.9062,2.1708 1.63534,1.63534 4.72886,2.26351 6.04575,1.22764 z m -10.74257,-0.42046 c 0.18246,-0.47547 -0.36797,-1.75651 -1.55825,-3.62664 -0.71405,-1.12187 -0.79131,-1.4308 -0.66469,-2.65765 0.13825,-1.33949 0.11249,-1.40932 -0.73369,-1.98914 -0.62419,-0.4277 -1.16999,-0.57682 -1.89351,-0.51734 -0.96902,0.0797 -1.02041,0.13061 -1.0995,1.08996 -0.0913,1.1079 0.45633,2.21843 2.31186,4.6879 0.59312,0.78937 1.0784,1.62029 1.0784,1.84649 0,0.2262 0.18534,0.67589 0.41188,0.99931 0.49387,0.7051 1.89909,0.81445 2.1475,0.16711 z m 17.72273,2.33915 c -0.3594,-0.58442 -0.75145,-3.70403 -0.66274,-5.27363 0.16139,-2.8558 1.40262,-4.88316 3.70824,-6.05687 3.37618,-1.71869 5.95333,-0.74737 6.96871,2.62649 0.19459,0.64657 0.43743,2.53368 0.53965,4.19358 0.16273,2.64259 0.13005,3.0738 -0.26271,3.46656 -0.50201,0.50202 -0.6606,0.5338 -1.1412,0.22871 -0.22779,-0.14461 -0.36577,-1.213 -0.43515,-3.36939 -0.15809,-4.914 -1.04815,-6.44029 -3.5553,-6.09665 -3.29445,0.45156 -4.71392,3.14965 -4.05492,7.7075 0.18004,1.24523 0.25669,2.37837 0.17034,2.5181 -0.18574,0.30052 -1.09978,0.34039 -1.27492,0.0556 z M 4.636217,117.60995 c -0.2352342,-0.23524 -0.3175,-2.79581 -0.3175,-9.8824 0,-6.30069 -0.099785,-9.85113 -0.292393,-10.403647 -0.4875875,-1.398695 -0.072318,-1.620899 3.036769,-1.624927 3.291171,-0.0043 10.16696,0.971756 10.81552,1.535267 0.847522,0.736382 0.558804,1.322138 -1.058333,2.147165 -0.836745,0.426888 -1.75948,0.956732 -2.050521,1.177422 -0.517229,0.39222 -0.504857,0.42702 0.548433,1.54276 1.688834,1.78895 5.292083,6.10747 5.629081,6.74648 0.50175,0.95142 0.366543,2.1625 -0.317831,2.84687 -0.980153,0.98016 -3.092219,1.27675 -8.28525,1.1635 -3.9013776,-0.0851 -4.6440303,-0.1674 -5.0347312,-0.55811 -0.434507,-0.4345 -0.4345306,-0.48207 -4.547e-4,-0.91615 0.3789666,-0.37896 0.5476622,-0.40176 0.979148,-0.13229 0.6417274,0.40077 3.7742059,0.42115 7.4083979,0.0482 2.616309,-0.26848 3.967998,-0.74852 3.967998,-1.4092 0,-0.16652 -1.284881,-1.73962 -2.855292,-3.49578 -1.57041,-1.75615 -3.118223,-3.52727 -3.439583,-3.93581 -1.057314,-1.34416 -0.621636,-2.694481 1.223629,-3.792467 0.597832,-0.355727 0.777894,-0.589009 0.559039,-0.724269 -0.177561,-0.109739 -2.288215,-0.25914 -4.690341,-0.332003 l -4.3675022,-0.132476 0.1907116,0.765822 c 0.1048913,0.421202 0.2535655,3.206603 0.3303871,6.189783 0.1058259,4.10949 0.032753,6.35242 -0.3015246,9.2551 -0.4644431,4.03298 -0.7945549,4.80445 -1.6778569,3.92115 z m 20.108334,-14.2875 c -0.435141,-0.43514 -0.397985,-0.87383 0.1097,-1.29517 0.36634,-0.30404 0.498835,-0.26608 0.930027,0.26642 0.385678,0.47629 0.432707,0.70545 0.201861,0.98361 -0.370964,0.44698 -0.823299,0.46343 -1.241588,0.0451 z m 78.543599,-6.410983 c -0.78174,-0.941944 1.05652,-1.781725 4.01981,-1.836382 1.48414,-0.02738 1.90636,0.05574 2.14193,0.421643 0.49004,0.761195 -0.2043,1.116273 -2.55158,1.304859 -1.19362,0.0959 -2.41666,0.253288 -2.71787,0.349755 -0.35028,0.112185 -0.67185,0.02574 -0.89229,-0.239875 z"
       id="path1"
       sodipodi:nodetypes="ssscsscssssssssssssssssscsssssscsssssssssscssssssccssssscsssssssssssssssscssssssccssccccssscsssssssscssscsscsscsssscssscsccssssssssssssssssssccscsssssssssccsccssssssssssscssccssssssccscccssssccsssscscscccssssssscssscsssssssssssssssssscsssssssscssscsssssssssssssccsssssssssssssssscsscssccsccccscsccssscssscccsscccssssss" /><rect
       style="fill:#000000;stroke-width:0.255801"
       id="rect1"
       width="212.76395"
       height="1.5191816"
       x="-1.6755258"
       y="124.11205" /></g></svg>
